<svg width="30" height="30" viewBox="0 0 30 30" fill="none" xmlns="http://www.w3.org/2000/svg">
<rect x="0.5" y="0.5" width="29" height="29" stroke="#2D383F"/>
<path d="M15.5 9.42035C16.4159 9.42035 17.1607 10.1874 17.1607 11.1305C17.1607 12.0708 16.4159 12.8378 15.5 12.8378C14.5841 12.8378 13.8393 12.0708 13.8393 11.1305C13.8393 10.1874 14.5841 9.42035 15.5 9.42035ZM15.5 15.2582C17.7124 15.2582 19.5111 13.406 19.5111 11.1305C19.5111 8.85219 17.7124 7 15.5 7C13.2876 7 11.4917 8.85219 11.4917 11.1305C11.4917 13.406 13.2876 15.2582 15.5 15.2582ZM17.1221 18.6273C17.9386 18.4342 18.7248 18.1018 19.4504 17.6331C19.9993 17.278 20.1649 16.5308 19.82 15.9655C19.4724 15.3974 18.7497 15.2269 18.1979 15.5848C16.5566 16.6473 14.4434 16.6473 12.7993 15.5848C12.2503 15.2269 11.5248 15.3974 11.18 15.9655C10.8351 16.5308 11.0007 17.278 11.5496 17.6331C12.2752 18.1018 13.0614 18.4342 13.8779 18.6273L11.6351 20.934C11.1772 21.4056 11.1772 22.1726 11.6351 22.6442C11.8669 22.88 12.1648 22.9993 12.4655 22.9993C12.7662 22.9993 13.0669 22.88 13.2986 22.6442L15.5 20.3772L17.7042 22.6442C18.1621 23.1186 18.9042 23.1186 19.3649 22.6442C19.8228 22.1726 19.8228 21.4056 19.3649 20.934L17.1221 18.6273Z" fill="#2D383F"/>
</svg>
