<svg width="10" height="16" viewBox="0 0 10 16" xmlns="http://www.w3.org/2000/svg">
<path d="M5 2.42035C5.91587 2.42035 6.6607 3.18736 6.6607 4.1305C6.6607 5.0708 5.91587 5.83781 5 5.83781C4.08413 5.83781 3.3393 5.0708 3.3393 4.1305C3.3393 3.18736 4.08413 2.42035 5 2.42035ZM5 8.25816C7.21243 8.25816 9.01106 6.40597 9.01106 4.1305C9.01106 1.85219 7.21243 0 5 0C2.78757 0 0.991701 1.85219 0.991701 4.1305C0.991701 6.40597 2.78757 8.25816 5 8.25816ZM6.62208 11.6273C7.43863 11.4342 8.22485 11.1018 8.95037 10.6331C9.49934 10.278 9.66486 9.53083 9.32003 8.96551C8.97244 8.39735 8.24967 8.22691 7.69795 8.58485C6.05656 9.6473 3.94344 9.6473 2.29929 8.58485C1.75033 8.22691 1.0248 8.39735 0.679975 8.96551C0.335145 9.53083 0.500663 10.278 1.04963 10.6331C1.77515 11.1018 2.56136 11.4342 3.37792 11.6273L1.13515 13.934C0.677216 14.4056 0.677216 15.1726 1.13515 15.6442C1.36688 15.88 1.66481 15.9993 1.9655 15.9993C2.26619 15.9993 2.56688 15.88 2.79861 15.6442L5 13.3772L7.20415 15.6442C7.66208 16.1186 8.40416 16.1186 8.86485 15.6442C9.32278 15.1726 9.32278 14.4056 8.86485 13.934L6.62208 11.6273Z"/>
</svg>
