<svg width="14" height="16" viewBox="0 0 14 16" xmlns="http://www.w3.org/2000/svg">
<path d="M8.36171 0.5C7.91277 0.5 7.49149 0.744007 7.22128 1.09589C6.95106 1.44777 6.80213 1.87671 6.69362 2.32877C6.52128 3.05565 6.46808 3.86216 6.45532 4.58904C5.19361 4.67894 4.05105 5.07962 3.10211 5.69863C2.717 5.35188 2.25317 5.15925 1.80849 5.16438C1.3021 5.16952 0.821252 5.40325 0.463803 5.88356C-0.219178 6.80051 -0.140455 8.30051 0.651038 9.19178C0.602102 9.46661 0.565931 9.74914 0.565931 10.0342C0.565931 13.0548 3.44679 15.5 7 15.5C10.5532 15.5 13.4341 13.0522 13.4341 10.0342C13.4341 9.74914 13.3979 9.46661 13.349 9.19178C14.1405 8.30051 14.2192 6.80051 13.5362 5.88356C13.1788 5.40325 12.6979 5.16952 12.1915 5.16438C11.7468 5.15925 11.283 5.35188 10.8979 5.69863C9.9532 5.08219 8.81703 4.68151 7.5617 4.58904C7.57873 3.91866 7.62341 3.2226 7.74894 2.69863C7.82766 2.36986 7.92128 2.13099 8.02128 2C8.12128 1.86901 8.19362 1.81507 8.36171 1.81507C8.72554 1.81507 8.77235 1.94092 8.9915 2.24658C9.10214 2.40068 9.2298 2.59332 9.43405 2.78082C9.63831 2.96832 9.94044 3.13014 10.2681 3.13014V1.81507C10.1766 1.81507 10.1596 1.8125 10.0979 1.75342C10.0362 1.69435 9.95108 1.55822 9.82554 1.38356C9.57448 1.03168 9.08724 0.5 8.36171 0.5ZM11.9021 0.623288C11.0553 0.623288 10.3702 1.45034 10.3702 2.4726C10.3702 3.49486 11.0553 4.32192 11.9021 4.32192C12.749 4.32192 13.4341 3.49486 13.4341 2.4726C13.4341 1.45034 12.749 0.623288 11.9021 0.623288ZM11.9021 1.28082C12.4468 1.28082 12.8894 1.81507 12.8894 2.4726C12.8894 3.13014 12.4468 3.66438 11.9021 3.66438C11.3575 3.66438 10.9149 3.13014 10.9149 2.4726C10.9149 1.81507 11.3575 1.28082 11.9021 1.28082ZM7 5.61644C10.0149 5.61644 12.566 7.64298 12.566 10.0342C12.566 12.4281 10.0149 14.4521 7 14.4521C3.98509 14.4521 1.43402 12.4281 1.43402 10.0342C1.43402 7.64298 3.98509 5.61644 7 5.61644ZM1.82551 6.21233C1.97658 6.2149 2.13402 6.25599 2.28509 6.33562C1.73828 6.83647 1.30423 7.41182 1.00849 8.06164C0.80423 7.55308 0.85955 6.91866 1.11061 6.58219C1.29359 6.33562 1.54679 6.20976 1.82551 6.21233ZM12.1745 6.21233C12.4532 6.20976 12.7064 6.33562 12.8894 6.58219C13.1405 6.91866 13.1958 7.55308 12.9915 8.06164C12.6958 7.41182 12.2617 6.83647 11.7149 6.33562C11.866 6.25599 12.0234 6.2149 12.1745 6.21233ZM4.82127 7.85616C4.27658 7.85616 3.83403 8.39041 3.83403 9.04795C3.83403 9.70548 4.27658 10.2397 4.82127 10.2397C5.36595 10.2397 5.80851 9.70548 5.80851 9.04795C5.80851 8.39041 5.36595 7.85616 4.82127 7.85616ZM9.17873 7.85616C8.63405 7.85616 8.19149 8.39041 8.19149 9.04795C8.19149 9.70548 8.63405 10.2397 9.17873 10.2397C9.72342 10.2397 10.166 9.70548 10.166 9.04795C10.166 8.39041 9.72342 7.85616 9.17873 7.85616ZM4.29361 11.9041C4.64042 12.7697 5.71276 13.6096 7 13.6096C8.28724 13.6096 9.37661 12.7697 9.72342 11.9041C9.09363 12.3947 8.10001 12.726 7 12.726C5.9 12.726 4.9234 12.3947 4.29361 11.9041Z"/>
</svg>
