<svg width="30" height="30" viewBox="0 0 30 30" fill="none" xmlns="http://www.w3.org/2000/svg"><rect opacity="0.3" x="0.5" y="0.5" width="29" height="29" stroke="#2D383F"/><path d="M15 9.42035C15.9159 9.42035 16.6607 10.1874 16.6607 11.1305C16.6607 12.0708 15.9159 12.8378 15 12.8378C14.0841 12.8378 13.3393 12.0708 13.3393 11.1305C13.3393 10.1874 14.0841 9.42035 15 9.42035ZM15 15.2582C17.2124 15.2582 19.0111 13.406 19.0111 11.1305C19.0111 8.85219 17.2124 7 15 7C12.7876 7 10.9917 8.85219 10.9917 11.1305C10.9917 13.406 12.7876 15.2582 15 15.2582ZM16.6221 18.6273C17.4386 18.4342 18.2248 18.1018 18.9504 17.6331C19.4993 17.278 19.6649 16.5308 19.32 15.9655C18.9724 15.3974 18.2497 15.2269 17.6979 15.5848C16.0566 16.6473 13.9434 16.6473 12.2993 15.5848C11.7503 15.2269 11.0248 15.3974 10.68 15.9655C10.3351 16.5308 10.5007 17.278 11.0496 17.6331C11.7752 18.1018 12.5614 18.4342 13.3779 18.6273L11.1351 20.934C10.6772 21.4056 10.6772 22.1726 11.1351 22.6442C11.3669 22.88 11.6648 22.9993 11.9655 22.9993C12.2662 22.9993 12.5669 22.88 12.7986 22.6442L15 20.3772L17.2042 22.6442C17.6621 23.1186 18.4042 23.1186 18.8649 22.6442C19.3228 22.1726 19.3228 21.4056 18.8649 20.934L16.6221 18.6273Z" fill="#2D383F"/></svg>