<svg width="30" height="30" viewBox="0 0 30 30" fill="none" xmlns="http://www.w3.org/2000/svg"><rect opacity="0.3" x="0.5" y="0.5" width="29" height="29" stroke="#2D383F"/><path d="M16.3617 7.5C15.9128 7.5 15.4915 7.74401 15.2213 8.09589C14.9511 8.44777 14.8021 8.87671 14.6936 9.32877C14.5213 10.0557 14.4681 10.8622 14.4553 11.589C13.1936 11.6789 12.0511 12.0796 11.1021 12.6986C10.717 12.3519 10.2532 12.1592 9.80849 12.1644C9.3021 12.1695 8.82125 12.4033 8.4638 12.8836C7.78082 13.8005 7.85955 15.3005 8.65104 16.1918C8.6021 16.4666 8.56593 16.7491 8.56593 17.0342C8.56593 20.0548 11.4468 22.5 15 22.5C18.5532 22.5 21.4341 20.0522 21.4341 17.0342C21.4341 16.7491 21.3979 16.4666 21.349 16.1918C22.1405 15.3005 22.2192 13.8005 21.5362 12.8836C21.1787 12.4033 20.6979 12.1695 20.1915 12.1644C19.7468 12.1592 19.283 12.3519 18.8979 12.6986C17.9532 12.0822 16.817 11.6815 15.5617 11.589C15.5787 10.9187 15.6234 10.2226 15.7489 9.69863C15.8277 9.36986 15.9213 9.13099 16.0213 9C16.1213 8.86901 16.1936 8.81507 16.3617 8.81507C16.7255 8.81507 16.7723 8.94092 16.9915 9.24658C17.1021 9.40068 17.2298 9.59332 17.4341 9.78082C17.6383 9.96832 17.9404 10.1301 18.2681 10.1301V8.81507C18.1766 8.81507 18.1596 8.8125 18.0979 8.75342C18.0362 8.69435 17.9511 8.55822 17.8255 8.38356C17.5745 8.03168 17.0872 7.5 16.3617 7.5ZM19.9021 7.62329C19.0553 7.62329 18.3702 8.45034 18.3702 9.4726C18.3702 10.4949 19.0553 11.3219 19.9021 11.3219C20.749 11.3219 21.4341 10.4949 21.4341 9.4726C21.4341 8.45034 20.749 7.62329 19.9021 7.62329ZM19.9021 8.28082C20.4468 8.28082 20.8894 8.81507 20.8894 9.4726C20.8894 10.1301 20.4468 10.6644 19.9021 10.6644C19.3575 10.6644 18.9149 10.1301 18.9149 9.4726C18.9149 8.81507 19.3575 8.28082 19.9021 8.28082ZM15 12.6164C18.0149 12.6164 20.566 14.643 20.566 17.0342C20.566 19.4281 18.0149 21.4521 15 21.4521C11.9851 21.4521 9.43402 19.4281 9.43402 17.0342C9.43402 14.643 11.9851 12.6164 15 12.6164ZM9.82551 13.2123C9.97658 13.2149 10.134 13.256 10.2851 13.3356C9.73828 13.8365 9.30423 14.4118 9.00849 15.0616C8.80423 14.5531 8.85955 13.9187 9.11061 13.5822C9.29359 13.3356 9.54679 13.2098 9.82551 13.2123ZM20.1745 13.2123C20.4532 13.2098 20.7064 13.3356 20.8894 13.5822C21.1405 13.9187 21.1958 14.5531 20.9915 15.0616C20.6958 14.4118 20.2617 13.8365 19.7149 13.3356C19.866 13.256 20.0234 13.2149 20.1745 13.2123ZM12.8213 14.8562C12.2766 14.8562 11.834 15.3904 11.834 16.0479C11.834 16.7055 12.2766 17.2397 12.8213 17.2397C13.366 17.2397 13.8085 16.7055 13.8085 16.0479C13.8085 15.3904 13.366 14.8562 12.8213 14.8562ZM17.1787 14.8562C16.6341 14.8562 16.1915 15.3904 16.1915 16.0479C16.1915 16.7055 16.6341 17.2397 17.1787 17.2397C17.7234 17.2397 18.166 16.7055 18.166 16.0479C18.166 15.3904 17.7234 14.8562 17.1787 14.8562ZM12.2936 18.9041C12.6404 19.7697 13.7128 20.6096 15 20.6096C16.2872 20.6096 17.3766 19.7697 17.7234 18.9041C17.0936 19.3947 16.1 19.726 15 19.726C13.9 19.726 12.9234 19.3947 12.2936 18.9041Z" fill="#2D383F"/></svg>